<svg width="19" height="19" viewBox="0 0 19 19" fill="none" xmlns="http://www.w3.org/2000/svg">
<path d="M4.31367 18.1337H0.240631V5.89791H4.31367V18.1337ZM14.3111 5.61111C16.9909 5.6112 19 7.35989 19 11.1181V18.1337H14.927V11.5876C14.927 9.94334 14.3376 8.82181 12.8634 8.82181C11.7388 8.82202 11.0687 9.57749 10.7744 10.3078C10.6667 10.5697 10.6398 10.9351 10.6398 11.3008V18.1337H6.56774C6.56809 18.0614 6.62124 7.04228 6.56774 5.89791H10.6398V7.63143C11.1803 6.7983 12.149 5.61111 14.3111 5.61111ZM2.30416 0C3.69717 9.46968e-05 4.55537 0.913969 4.5818 2.11362C4.58169 3.28838 3.69654 4.22822 2.27666 4.22822H2.25112C0.884022 4.22822 0.000117064 3.28838 0 2.11362C0 0.913907 0.911025 0 2.30416 0Z" fill="#0649E7"/>
</svg>
