<svg width="32" height="31" viewBox="0 0 32 31" fill="none" xmlns="http://www.w3.org/2000/svg">
<path d="M24.1025 9.45023C28.6158 9.45023 31.9999 12.3959 32 18.7254L31.999 30.5417H25.141V19.5161C25.1409 16.7471 24.1484 14.8579 21.6657 14.8578C19.771 14.8578 18.642 16.1311 18.1462 17.3615C17.9649 17.8024 17.92 18.4173 17.92 19.0332V30.5426H11.061C11.061 30.5426 11.1514 11.8678 11.061 9.93405H17.92V12.8537C18.8303 11.4505 20.4611 9.45031 24.1025 9.45023ZM7.26419 30.5417H0.406134V9.93405H7.26419V30.5417ZM3.8804 0C6.22655 4.20267e-05 7.67187 1.53846 7.71654 3.55883C7.71654 5.53754 6.22667 7.12157 3.83516 7.1216H3.79091C1.48847 7.12144 0 5.53746 0 3.55883C0.000184824 1.53843 1.5342 0 3.8804 0Z" fill="#FEFEFE"/>
</svg>
