<svg width="32" height="30" viewBox="0 0 32 30" fill="none" xmlns="http://www.w3.org/2000/svg">
<path d="M7.1352 30H0.39885V9.75762H7.1352V30ZM23.6752 9.28233C28.1084 9.28243 31.4317 12.1768 31.4317 18.3941V30H24.6944V19.1703C24.6944 16.4502 23.7199 14.5938 21.2812 14.5938C19.4202 14.5938 18.3118 15.8451 17.8248 17.0535C17.6466 17.4867 17.6023 18.091 17.6023 18.696V30H10.865C10.8655 29.8989 10.9535 11.6544 10.865 9.7586H17.6023V12.625C18.4965 11.2468 20.0985 9.28233 23.6752 9.28233ZM3.81113 0C6.11566 0 7.53519 1.51108 7.57913 3.49557C7.57913 5.43919 6.11614 6.99507 3.76703 6.99507H3.72391C1.46217 6.99503 0 5.43916 0 3.49557C0.000235742 1.51117 1.50678 0.00014151 3.81113 0Z" fill="#FEFEFE"/>
</svg>
