<svg width="59" height="56" viewBox="0 0 59 56" fill="none" xmlns="http://www.w3.org/2000/svg">
<path d="M26.4843 1.89328C27.498 -0.631159 31.0717 -0.631155 32.0855 1.89329L37.815 16.1611C38.2467 17.2361 39.2557 17.9691 40.4115 18.0475L55.7515 19.0876C58.4656 19.2717 59.57 22.6705 57.4823 24.4147L45.6834 34.2728C44.7944 35.0156 44.409 36.2017 44.6916 37.3251L48.4427 52.2358C49.1064 54.8739 46.2152 56.9745 43.9113 55.5281L30.8896 47.3529C29.9084 46.7369 28.6613 46.7369 27.6802 47.3529L14.6585 55.5281C12.3545 56.9745 9.46333 54.8739 10.127 52.2358L13.8781 37.3251C14.1607 36.2017 13.7754 35.0156 12.8864 34.2728L1.08741 24.4147C-1.00021 22.6705 0.104125 19.2717 2.81828 19.0876L18.1583 18.0475C19.3141 17.9691 20.323 17.2361 20.7547 16.1611L26.4843 1.89328Z" fill="#022183"/>
</svg>
